<svg width="26" height="25" viewBox="0 0 26 25" fill="none" xmlns="http://www.w3.org/2000/svg">
<g clip-path="url(#clip0_67_169)">
<path d="M25.3157 5.65857L16.547 14.1616C15.5692 15.1073 14.2446 15.6384 12.8636 15.6384C11.4827 15.6384 10.1581 15.1073 9.18031 14.1616L0.411564 5.65857C0.396981 5.81817 0.363647 5.96261 0.363647 6.1212V18.2424C0.365301 19.5814 0.914566 20.8651 1.89096 21.8119C2.86735 22.7587 4.19115 23.2913 5.57198 23.2929H20.1553C21.5361 23.2913 22.8599 22.7587 23.8363 21.8119C24.8127 20.8651 25.362 19.5814 25.3636 18.2424V6.1212C25.3636 5.96261 25.3303 5.81817 25.3157 5.65857Z" fill="white"/>
<path d="M15.0741 12.7333L24.5887 3.50603C24.1278 2.76494 23.4777 2.15152 22.7011 1.72495C21.9246 1.29838 21.0478 1.07304 20.1553 1.07068H5.57201C4.67953 1.07304 3.80274 1.29838 3.0262 1.72495C2.24966 2.15152 1.59959 2.76494 1.13867 3.50603L10.6533 12.7333C11.2403 13.3003 12.0351 13.6186 12.8637 13.6186C13.6922 13.6186 14.487 13.3003 15.0741 12.7333Z" fill="white"/>
</g>
<defs>
<clipPath id="clip0_67_169">
<rect width="25" height="24.2424" fill="white" transform="translate(0.363647 0.0606079)"/>
</clipPath>
</defs>
</svg>
