<svg width="24" height="25" viewBox="0 0 24 25" fill="none" xmlns="http://www.w3.org/2000/svg">
<g clip-path="url(#clip0_67_177)">
<path d="M12 0.40564C9.35392 0.408551 6.81706 1.46092 4.94592 3.33187C3.07478 5.20282 2.02216 7.73958 2.01898 10.3856C2.01898 12.9556 4.00898 16.9776 7.93398 22.3396C8.40124 22.9798 9.01304 23.5005 9.71958 23.8595C10.4261 24.2186 11.2075 24.4057 12 24.4057C12.7925 24.4057 13.5738 24.2186 14.2804 23.8595C14.9869 23.5005 15.5987 22.9798 16.066 22.3396C19.991 16.9776 21.981 12.9556 21.981 10.3856C21.9778 7.73958 20.9252 5.20282 19.054 3.33187C17.1829 1.46092 14.646 0.408551 12 0.40564ZM12 14.3636C11.2089 14.3636 10.4355 14.129 9.7777 13.6895C9.11991 13.25 8.60721 12.6253 8.30446 11.8944C8.00171 11.1635 7.9225 10.3592 8.07684 9.58328C8.23118 8.80736 8.61215 8.09462 9.17156 7.53521C9.73097 6.9758 10.4437 6.59484 11.2196 6.4405C11.9955 6.28616 12.7998 6.36537 13.5307 6.66812C14.2616 6.97087 14.8863 7.48356 15.3259 8.14136C15.7654 8.79916 16 9.57252 16 10.3636C16 11.4245 15.5786 12.4419 14.8284 13.1921C14.0783 13.9422 13.0608 14.3636 12 14.3636Z" fill="white"/>
</g>
<defs>
<clipPath id="clip0_67_177">
<rect width="24" height="24" fill="white" transform="translate(0 0.363647)"/>
</clipPath>
</defs>
</svg>
