<svg width="42" height="42" viewBox="0 0 42 42" fill="none" xmlns="http://www.w3.org/2000/svg">
<g clip-path="url(#clip0_37_75)">
<g clip-path="url(#clip1_37_75)">
<path d="M32.0053 9.48438C33.1265 10.4801 34.0681 11.486 34.8495 12.6308C37.6045 16.6646 38.5348 21.0767 37.5525 25.8725C37.4904 26.1751 37.5491 26.358 37.7648 26.5725C39.9722 28.7661 40.5875 32.0469 39.3331 34.8501C38.0538 37.7075 35.1916 39.4608 32.0696 39.2768C30.7034 39.1967 29.4479 38.7586 28.3256 37.9706C28.1043 37.8159 27.9383 37.7888 27.6809 37.9006C25.9883 38.6401 24.2202 39.0917 22.3741 39.2158C22.146 39.2317 21.9902 39.3073 21.8468 39.497C20.5766 41.1735 18.8818 42.001 16.7783 41.9999C13.2646 41.9999 9.75085 42.0022 6.23825 41.9988C2.6737 41.9942 0.00791176 39.3265 0.00226629 35.7623C0.00226629 35.1561 -0.00337917 34.5487 0.00339539 33.9424C0.0124281 33.081 0.575845 32.5267 1.44525 32.5165C1.69929 32.5131 1.95673 32.4906 2.20626 32.5222C2.59918 32.5707 2.73693 32.4601 2.72338 32.0311C2.68838 30.9032 2.71096 29.7743 2.71209 28.6453C2.71209 27.776 3.03049 27.3436 3.86602 27.1167C4.02184 27.0749 4.07378 27.0252 4.06813 26.8728C4.02748 25.6456 4.26685 24.432 4.11104 23.1878C3.92812 21.7281 4.13249 20.2593 4.45202 18.8198C4.51412 18.5387 4.46105 18.3649 4.25782 18.1538C2.21303 16.0223 1.50509 13.5069 2.38578 10.6788C3.26986 7.83947 5.27061 6.11779 8.18593 5.54427C10.1573 5.1559 11.9966 5.60072 13.6609 6.7263C13.8958 6.88549 14.0708 6.92387 14.3406 6.80194C15.3986 6.3289 16.5028 5.98908 17.641 5.77006C17.86 5.72829 17.9752 5.63797 18.0768 5.43927C18.997 3.64082 20.4739 2.71619 22.4972 2.71281C27.14 2.70378 31.7817 2.70716 36.4245 2.71732C36.7351 2.71732 36.9055 2.63829 37.0331 2.34589C37.2646 1.81753 37.5401 1.30837 37.8032 0.793555C38.0719 0.268583 38.5021 -0.000111957 39.0971 0.00101701C39.3929 0.00101701 39.6899 -0.0023699 39.9857 0.00101701C41.2266 0.0190806 42.0994 0.968546 41.991 2.21719C41.8837 3.45341 41.7437 4.68625 41.6172 5.92022C41.5845 6.2431 41.5563 6.56599 41.5134 6.88774C41.3564 8.07429 40.7072 8.88151 39.5939 9.29584C39.3421 9.38954 39.2868 9.51147 39.2913 9.75194C39.3037 10.514 39.2981 11.2761 39.2947 12.037C39.2913 13.0102 38.7437 13.4798 37.767 13.5634C36.5984 13.6638 35.8713 13.2416 35.4456 12.1375C35.1374 11.3393 34.6801 10.5998 34.312 9.82307C34.1946 9.5747 34.0647 9.46067 33.7734 9.47535C33.2247 9.50244 32.6748 9.48325 32.0064 9.48325L32.0053 9.48438ZM11.5055 40.644C13.2409 40.644 14.9774 40.6451 16.7128 40.644C19.6474 40.6406 21.6763 38.596 21.6933 35.663C21.6955 35.2577 21.5555 35.2182 21.2145 35.2193C17.3338 35.2294 13.4532 35.2306 9.57246 35.2238C7.72752 35.2215 8.00302 35.3977 6.69327 34.0655C6.56907 33.939 6.44487 33.8657 6.25405 33.8668C4.71623 33.8747 3.17728 33.8758 1.63945 33.8668C1.41589 33.8657 1.34702 33.9334 1.35266 34.1547C1.36621 34.6909 1.35492 35.2272 1.35718 35.7635C1.36847 38.587 3.42455 40.6372 6.25518 40.644C8.00528 40.6485 9.75537 40.644 11.5043 40.644H11.5055ZM20.9932 21.6773C23.3485 21.6773 25.7027 21.6773 28.058 21.6773C28.2759 21.6773 28.4588 21.7134 28.4373 21.3634C28.3098 19.3121 27.9315 17.3172 27.2258 15.381C27.0847 14.9926 26.8984 14.8797 26.5032 14.8922C25.688 14.9181 25.2285 14.5693 25.0241 13.7937C24.9665 13.5735 24.8717 13.5442 24.682 13.5442C22.2002 13.5487 19.7185 13.5498 17.2367 13.5419C16.9985 13.5419 16.8901 13.5904 16.8551 13.8535C16.592 15.8315 15.656 17.4369 14.1103 18.6889C13.924 18.8402 13.8224 18.9937 13.7862 19.2409C13.6891 19.9116 13.6507 20.5867 13.574 21.2584C13.5356 21.5937 13.6282 21.6852 13.9703 21.6829C16.3109 21.6682 18.6515 21.675 20.9921 21.675L20.9932 21.6773ZM14.9029 29.597C15.2032 28.7029 15.7746 28.4026 16.5728 28.4477C16.8687 28.4646 17.1656 28.4488 17.4614 28.4511C18.42 28.4556 18.9631 28.9919 18.9699 29.9391C18.9722 30.2631 18.9778 30.5882 18.9676 30.9123C18.962 31.0827 19.0117 31.1471 19.1912 31.1821C19.7896 31.2984 20.1769 31.6698 20.2943 32.2659C20.3395 32.4996 20.4434 32.5165 20.6285 32.5165C22.0117 32.512 23.3948 32.5098 24.778 32.5188C25.0139 32.5199 25.0885 32.4578 25.0805 32.2106C25.0015 29.6546 25.968 27.5728 27.9564 25.9662C28.0986 25.8511 28.181 25.7292 28.1991 25.5463C28.2702 24.8169 28.3425 24.0876 28.4328 23.3594C28.4656 23.0907 28.3775 23.0253 28.1167 23.0253C23.3745 23.032 18.6323 23.032 13.8912 23.0253C13.6259 23.0253 13.5559 23.0998 13.5785 23.3617C13.6417 24.0921 13.6903 24.8248 13.8066 25.5496C14.0245 26.8988 14.3553 28.2174 14.904 29.5959L14.9029 29.597ZM9.51375 6.77485C6.15808 6.76582 3.40648 9.48212 3.39067 12.8216C3.37374 16.1972 6.09937 18.9576 9.45955 18.9666C12.831 18.9768 15.5815 16.2401 15.5849 12.8769C15.5871 9.52728 12.8592 6.78388 9.51487 6.77485H9.51375ZM32.5134 37.9345C35.8634 37.9367 38.6071 35.2091 38.6172 31.8651C38.6274 28.494 35.8927 25.7438 32.5269 25.7427C29.1758 25.7404 26.4332 28.4669 26.4242 31.8109C26.4151 35.1832 29.1498 37.9333 32.5145 37.9345H32.5134ZM19.6665 5.42008H20.6861C21.7192 5.42008 21.7102 5.42008 21.6876 6.47228C21.682 6.71388 21.6142 6.78501 21.376 6.77936C20.6985 6.76469 20.0211 6.77146 19.3448 6.7771C19.2296 6.7771 19.1031 6.73082 19.0252 6.8979C18.7452 7.49287 19.1144 8.12397 19.7704 8.12735C21.2382 8.13413 22.7049 8.12397 24.1728 8.13526C24.4008 8.13639 24.5149 8.06865 24.621 7.85979C24.9857 7.14402 25.5886 6.78049 26.3959 6.77598C27.3692 6.77033 28.3425 6.77259 29.3169 6.77598C30.1174 6.77823 30.6955 7.14176 31.0139 7.87559C31.102 8.07994 31.2059 8.13864 31.4181 8.13526C32.1521 8.12284 32.886 8.11945 33.6188 8.13639C33.857 8.14203 33.9507 8.05623 34.0444 7.84511C34.3549 7.14854 34.9127 6.78952 35.676 6.77823C36.3816 6.76807 37.0873 6.78049 37.7919 6.77485C38.4897 6.7692 38.9932 7.05596 39.2157 7.7356C39.2913 7.96704 39.3771 7.94107 39.5352 7.82818C39.9993 7.494 40.1596 7.01532 40.2104 6.47567C40.3301 5.21235 40.4069 3.94226 40.5898 2.68797C40.7727 1.43368 40.4306 1.30837 39.3342 1.34901C39.0971 1.35804 38.9831 1.44046 38.8882 1.64141C38.6353 2.17655 38.3643 2.70265 38.1001 3.23213C37.8224 3.7921 37.3752 4.07322 36.7452 4.06757C36.096 4.06193 35.4468 4.06644 34.7987 4.06644C30.6933 4.06644 26.5868 4.0687 22.4814 4.06644C21.3692 4.06644 20.458 4.47965 19.6665 5.42234V5.42008ZM33.1547 21.6773C34.1844 21.6773 35.2142 21.6739 36.2428 21.6795C36.4539 21.6807 36.5758 21.6682 36.5555 21.3894C36.3579 18.6494 35.5258 16.1239 34.0343 13.8151C33.9033 13.6119 33.7599 13.5419 33.5228 13.543C32.1408 13.5532 30.7588 13.5622 29.3767 13.5385C29.0019 13.5317 28.7478 13.6096 28.653 13.9912C28.592 14.2373 28.2748 14.3807 28.4035 14.7093C29.2435 16.8543 29.6737 19.0863 29.7798 21.3826C29.7911 21.6253 29.8781 21.684 30.1073 21.6818C31.1223 21.6705 32.1385 21.6773 33.1536 21.6773H33.1547ZM7.00942 28.4511C6.1355 28.4511 5.26158 28.4624 4.38766 28.4443C4.11894 28.4387 4.05797 28.5267 4.06136 28.7796C4.07378 29.921 4.07265 31.0635 4.06136 32.2049C4.0591 32.4364 4.11442 32.5335 4.36395 32.5199C4.7151 32.4996 5.07415 32.5549 5.41965 32.5075C6.56794 32.3528 7.49719 32.6915 8.18593 33.6399C8.309 33.8081 8.47046 33.8758 8.69177 33.8747C10.2002 33.8645 11.7087 33.8645 13.2172 33.8747C13.4656 33.8758 13.5728 33.825 13.5548 33.5518C13.5311 33.1871 13.5333 32.818 13.5548 32.4533C13.5683 32.2038 13.4746 32.0378 13.3019 31.8674C12.2382 30.8174 11.1803 29.763 10.1336 28.6972C9.94732 28.5076 9.75989 28.4432 9.50358 28.4466C8.67257 28.4601 7.84043 28.4511 7.00829 28.4511H7.00942ZM13.644 30.3026C13.6293 30.1434 13.6361 30.0859 13.6169 30.0384C12.7746 27.8945 12.3365 25.6659 12.2337 23.3696C12.2213 23.0896 12.122 23.0253 11.8589 23.0264C9.99813 23.0366 8.13738 23.032 6.27664 23.032C5.44562 23.032 5.46482 23.032 5.50208 23.8754C5.52014 24.2875 5.65676 24.4579 6.08017 24.3924C6.30035 24.3586 6.53068 24.3823 6.75537 24.3879C7.54687 24.4083 8.10802 24.9626 8.12948 25.7517C8.13851 26.104 8.1419 26.4573 8.12835 26.8084C8.11932 27.0241 8.18142 27.1088 8.41062 27.1009C8.86113 27.085 9.31277 27.1054 9.76328 27.0941C10.2307 27.0817 10.6112 27.2487 10.9341 27.5807C11.3271 27.9848 11.7313 28.3788 12.1287 28.7785C12.6131 29.264 13.0964 29.7505 13.6451 30.3026H13.644ZM20.8205 12.1939C22.0467 12.1939 23.2729 12.1894 24.5002 12.1973C24.7283 12.1984 24.822 12.1668 24.7791 11.8959C24.6718 11.2286 24.5905 10.5569 24.5273 9.88404C24.4979 9.57583 24.3952 9.47083 24.0678 9.47535C22.6722 9.4968 21.2766 9.48099 19.8811 9.48664C19.5096 9.48777 19.1472 9.45615 18.8118 9.2902C18.665 9.21681 18.5646 9.20891 18.446 9.34326C17.8961 9.96871 17.3813 10.619 16.9116 11.3077C16.7366 11.5651 16.8404 11.8372 16.9116 12.0788C16.9782 12.3057 17.2311 12.186 17.3959 12.1883C18.5375 12.1984 19.6801 12.1939 20.8216 12.1939H20.8205ZM27.8547 8.12961C27.3895 8.12961 26.9244 8.12397 26.4603 8.13074C25.9454 8.13864 25.6993 8.4017 25.7603 8.90296C25.9308 10.3142 26.1069 11.7254 26.2988 13.1332C26.318 13.2766 26.2209 13.5758 26.5201 13.5363C26.8476 13.4934 27.2563 13.7677 27.49 13.2935C28.2194 11.818 28.9635 10.3503 29.6952 8.87586C29.9356 8.39041 29.764 8.13413 29.2074 8.12961C28.7569 8.1251 28.3052 8.12961 27.8547 8.12961ZM8.81145 21.6773C9.84118 21.6773 10.8709 21.6705 11.8995 21.6818C12.1321 21.684 12.2191 21.6197 12.2258 21.3792C12.2382 20.957 12.2597 20.5314 12.3252 20.1148C12.3805 19.7591 12.2676 19.7795 11.9989 19.8788C11.2672 20.1498 10.5073 20.2954 9.72602 20.3169C8.41627 20.353 7.17878 20.0685 6.02485 19.4487C5.78096 19.3177 5.70419 19.329 5.65902 19.6248C5.57095 20.1972 5.52127 20.7718 5.45579 21.3454C5.4253 21.614 5.50095 21.684 5.76403 21.6807C6.77908 21.6671 7.79527 21.675 8.81032 21.675L8.81145 21.6773ZM33.1987 23.032C32.169 23.032 31.1393 23.0377 30.1095 23.0275C29.8826 23.0253 29.7866 23.0817 29.7787 23.3256C29.764 23.7614 29.7268 24.1983 29.6703 24.6318C29.6342 24.9084 29.6929 24.9423 29.9515 24.8497C32.0279 24.1091 34.0501 24.2513 36.0034 25.2697C36.2541 25.4006 36.3015 25.3351 36.341 25.0879C36.4291 24.5302 36.481 23.9702 36.5442 23.4102C36.5781 23.1133 36.5137 23.0196 36.2032 23.0253C35.2017 23.0433 34.2002 23.032 33.1987 23.032ZM37.9398 10.1968C37.9398 9.6334 37.9262 9.07005 37.9454 8.50782C37.9556 8.22783 37.898 8.10816 37.5841 8.12171C36.9936 8.14768 36.402 8.1251 35.8115 8.13074C35.2661 8.13639 35.108 8.39831 35.353 8.89393C35.8081 9.81291 36.306 10.7138 36.717 11.6531C36.9259 12.1318 37.2138 12.2549 37.6846 12.2029C37.8867 12.1804 37.9454 12.1239 37.9421 11.9286C37.9319 11.3517 37.9387 10.7748 37.9387 10.1979L37.9398 10.1968ZM23.2334 37.7267C24.446 37.598 25.6056 37.283 26.7324 36.8371C26.8713 36.7818 26.9142 36.7163 26.8069 36.5944C26.3632 36.0909 26.0392 35.506 25.7106 34.8862C24.9394 35.9136 24.1186 36.8337 23.2345 37.7256L23.2334 37.7267ZM16.277 9.80049C16.7207 9.27439 17.1396 8.7799 17.5574 8.28541C17.6331 8.19509 17.6669 7.34498 17.6026 7.2445C17.5393 7.14628 17.4501 7.19257 17.3779 7.2095C16.6654 7.37998 15.9665 7.59561 15.2845 7.86656C15.1095 7.93543 15.105 8.00543 15.2191 8.13752C15.6436 8.63088 15.9699 9.18972 16.277 9.80049ZM32.7832 12.1758C32.1498 11.4352 31.5119 10.8222 30.8175 10.2679C30.735 10.2024 30.6368 10.0308 30.5296 10.2442C30.21 10.8775 29.8961 11.5143 29.5664 12.1758H32.7844H32.7832ZM24.7452 33.8995H22.0557C22.4893 34.0993 22.767 34.3421 22.9319 34.7045C23.0979 35.0703 22.9974 35.4699 23.0651 35.9204C23.6929 35.2588 24.2303 34.6232 24.7452 33.8984V33.8995ZM6.09598 25.7416C5.6466 25.7416 5.42191 25.9158 5.42191 26.2643C5.42191 26.819 5.59956 27.0963 5.95484 27.0963C6.50208 27.0963 6.77607 26.9149 6.77682 26.5522C6.77682 26.0118 6.54988 25.7416 6.09598 25.7416ZM16.9217 29.8059C16.4814 29.8059 16.2612 30.0128 16.2612 30.4268C16.2612 30.916 16.4998 31.1606 16.977 31.1606C17.4031 31.1606 17.6161 30.9465 17.6161 30.5182C17.6161 30.0433 17.3847 29.8059 16.9217 29.8059ZM15.595 33.8702C16.0391 33.8702 16.2612 33.7076 16.2612 33.3825C16.2612 32.8044 16.0809 32.5154 15.7204 32.5154C15.1777 32.5154 14.9063 32.699 14.9063 33.0663C14.9063 33.6022 15.1359 33.8702 15.595 33.8702ZM18.297 32.5154C17.8431 32.5154 17.6161 32.6874 17.6161 33.0313C17.6161 33.5906 17.7915 33.8702 18.1423 33.8702C18.6948 33.8702 18.971 33.691 18.971 33.3328C18.971 32.7879 18.7463 32.5154 18.297 32.5154Z" fill="white"/>
<path d="M11.5077 37.9346C11.0629 37.9346 10.8408 37.6734 10.8416 37.1511C10.8416 36.7695 11.1201 36.5791 11.6771 36.5798C12.0233 36.5798 12.1965 36.8621 12.1965 37.4266C12.1965 37.7653 11.9669 37.9346 11.5077 37.9346Z" fill="white"/>
<path d="M14.1882 37.9346C13.7636 37.9346 13.5514 37.7197 13.5514 37.29C13.5514 36.8165 13.7836 36.5798 14.248 36.5798C14.6869 36.5798 14.9063 36.8015 14.9063 37.2448C14.9063 37.7047 14.6669 37.9346 14.1882 37.9346Z" fill="white"/>
<path d="M16.959 37.9346C16.4938 37.9346 16.2612 37.6979 16.2612 37.2245C16.2612 36.7947 16.4731 36.5798 16.8969 36.5798C17.3764 36.5798 17.6161 36.8233 17.6161 37.3103C17.6161 37.7265 17.3971 37.9346 16.959 37.9346Z" fill="white"/>
<path d="M10.8156 12.1929C10.7591 12.1929 10.7015 12.1861 10.6462 12.1952C10.2804 12.2516 10.1336 12.1387 10.1528 11.73C10.1867 11.012 9.6289 10.6282 8.93903 10.8415C8.88257 10.8585 8.84305 10.8754 8.81596 10.9341C8.56304 11.4715 8.94693 12.1444 9.53745 12.1952C10.7569 12.3013 11.51 13.1164 11.5179 14.3436C11.5213 14.8934 11.5111 15.4432 11.5224 15.993C11.5258 16.1906 11.4671 16.2583 11.2616 16.264C10.9025 16.2742 10.4227 16.0946 10.2183 16.3498C10.0444 16.5666 10.1618 17.0249 10.1686 17.376C10.172 17.5646 10.1009 17.6346 9.92134 17.6131C9.90779 17.612 9.89311 17.6131 9.87956 17.6131C8.81144 17.6605 8.80241 17.6605 8.81596 16.5937C8.82047 16.2854 8.75837 16.1014 8.45126 15.9388C7.69364 15.5358 7.30297 14.5931 7.45314 13.7272C7.47346 13.6098 7.50621 13.5466 7.63041 13.5499C7.74332 13.5522 7.85623 13.5477 7.96914 13.5499C8.22318 13.5522 8.52578 13.472 8.71659 13.5827C8.94241 13.7136 8.77644 14.0456 8.8137 14.2872C8.88935 14.7794 9.71133 15.1892 10.0873 14.8776C10.286 14.7128 10.1675 14.3967 10.1517 14.1528C10.1336 13.8593 9.94731 13.664 9.66503 13.5782C9.57245 13.5499 9.47083 13.5533 9.3726 13.5454C8.26722 13.4529 7.47459 12.6129 7.45766 11.5042C7.44862 10.9262 7.46443 10.3482 7.45201 9.77015C7.44749 9.55338 7.50847 9.47887 7.73541 9.47661C8.08205 9.47323 8.52691 9.63467 8.75047 9.40775C8.9537 9.20115 8.81144 8.7631 8.80466 8.42893C8.79902 8.18394 8.88483 8.12749 9.11855 8.12298C10.1652 8.10153 10.1788 8.09362 10.1584 9.12663C10.1517 9.45629 10.2364 9.64144 10.5435 9.81192C11.2909 10.2263 11.6985 11.2299 11.5235 12.036C11.4953 12.1658 11.4355 12.194 11.3248 12.1918C11.1554 12.1895 10.9861 12.1918 10.8167 12.1918L10.8156 12.1929Z" fill="white"/>
<path d="M33.857 31.1607C33.787 31.1607 33.7136 31.1494 33.6458 31.163C33.2653 31.2352 33.175 31.0715 33.1886 30.7057C33.2145 29.9787 32.6906 29.6084 31.9816 29.8071C31.9262 29.8229 31.8811 29.8353 31.8528 29.8929C31.5875 30.4054 31.9827 31.1099 32.5642 31.1618C33.7904 31.2713 34.5446 32.0808 34.5525 33.3024C34.5559 33.8386 34.5446 34.3738 34.557 34.91C34.5627 35.1336 34.5164 35.2329 34.2612 35.234C33.9157 35.234 33.4562 35.0681 33.2563 35.3108C33.0881 35.5151 33.1942 35.9566 33.2032 36.293C33.2089 36.5086 33.1479 36.5786 32.921 36.5865C31.8438 36.6249 31.837 36.6328 31.8483 35.5693C31.8517 35.2679 31.8066 35.0748 31.4915 34.91C30.7294 34.5115 30.3512 33.5925 30.4855 32.7018C30.5081 32.5527 30.5657 32.5098 30.6989 32.5155C30.7971 32.52 30.8965 32.5155 30.9947 32.5155C31.2488 32.5177 31.5469 32.4398 31.7445 32.546C31.9838 32.6758 31.8099 33.0054 31.8472 33.2448C31.9228 33.746 32.6906 34.1265 33.1208 33.8522C33.2879 33.7449 33.1942 33.5394 33.1953 33.3803C33.201 32.7774 32.9977 32.5595 32.4151 32.511C31.3064 32.4195 30.5104 31.5829 30.4923 30.4777C30.4833 29.9143 30.5002 29.3498 30.4855 28.7865C30.4787 28.5449 30.5239 28.432 30.8039 28.441C31.1359 28.4512 31.5694 28.5946 31.7795 28.38C31.9883 28.1678 31.8495 27.7354 31.837 27.4035C31.8257 27.1167 31.9533 27.0919 32.1871 27.0896C33.1999 27.0806 33.2123 27.075 33.1931 28.0843C33.1863 28.4105 33.2563 28.6025 33.5713 28.7741C34.3233 29.1839 34.723 30.1661 34.5582 30.9936C34.5333 31.1189 34.4836 31.1596 34.3673 31.1584C34.198 31.1551 34.0286 31.1584 33.8592 31.1584L33.857 31.1607Z" fill="white"/>
<path d="M6.77682 30.5015C6.77682 30.941 6.51336 31.1608 5.98645 31.1608C5.60934 31.1608 5.42116 30.8797 5.42191 30.3175C5.42191 29.9758 5.70644 29.8053 6.2755 29.806C6.60971 29.806 6.77682 30.0378 6.77682 30.5015Z" fill="white"/>
<path d="M8.77418 31.1607C8.34513 31.1607 8.1306 30.9481 8.1306 30.5228C8.1306 30.0449 8.37486 29.8059 8.86338 29.8059C8.94806 29.8059 9.03387 29.8172 9.1163 29.8037C9.40873 29.7585 9.53406 29.8691 9.48777 30.1695C9.47309 30.2654 9.48551 30.3659 9.48551 30.4641C9.48551 30.9277 9.2484 31.1596 8.77418 31.1596V31.1607Z" fill="white"/>
</g>
</g>
<defs>
<clipPath id="clip0_37_75">
<rect width="42" height="42" fill="white"/>
</clipPath>
<clipPath id="clip1_37_75">
<rect width="42" height="42" fill="white"/>
</clipPath>
</defs>
</svg>
