<svg width="42" height="42" viewBox="0 0 42 42" fill="none" xmlns="http://www.w3.org/2000/svg">
<g clip-path="url(#clip0_23_37)">
<path d="M20.4734 39.8896C14.9903 39.8896 9.50812 39.8864 4.02495 39.8979C3.66707 39.8979 3.5279 39.8425 3.54569 39.4429C3.58127 38.6395 3.55615 38.6196 4.36921 38.6458C4.7229 38.6573 4.81917 38.5631 4.81812 38.2012C4.80452 33.9604 4.81289 29.7186 4.80243 25.4778C4.80243 25.187 4.88928 25.0406 5.15088 24.9192C5.79024 24.6243 6.40971 24.2885 7.04488 23.9861C7.25102 23.8878 7.32113 23.7675 7.32113 23.5384C7.31485 17.783 7.31485 12.0285 7.31904 6.27304C7.31904 6.05964 7.27823 5.93307 7.06267 5.81905C6.41076 5.47489 6.07904 4.90792 6.06439 4.1673C6.05602 3.76247 6.05812 3.35869 6.06439 2.95386C6.08114 1.87746 6.87536 1.05629 7.94374 1.05524C13.7921 1.04897 19.6405 1.04897 25.4878 1.05524C26.5395 1.05629 27.3442 1.87013 27.3651 2.9162C27.3745 3.34614 27.3766 3.77817 27.3651 4.2081C27.3431 4.93198 27.0187 5.48954 26.3741 5.82219C26.1617 5.93202 26.1094 6.05337 26.1104 6.27095C26.1178 8.16329 26.1219 10.0556 26.1073 11.948C26.1052 12.2545 26.1837 12.3361 26.4934 12.335C29.5479 12.3235 32.6024 12.335 35.6568 12.3193C36.0367 12.3172 36.1518 12.3894 36.1507 12.7984C36.1361 21.2549 36.1434 29.7113 36.1287 38.1667C36.1287 38.5757 36.2428 38.6615 36.6237 38.6458C37.3928 38.6154 37.3708 38.6385 37.4022 39.4084C37.4179 39.7954 37.3237 39.9011 36.9198 39.9C31.4377 39.8843 25.9545 39.8896 20.4713 39.8896H20.4734ZM19.8487 26.2666V25.7979C19.8487 21.44 19.8529 17.0831 19.8414 12.7252C19.8414 12.3988 19.922 12.3141 20.2485 12.3193C21.658 12.3382 23.0675 12.3193 24.477 12.334C24.7721 12.3371 24.8736 12.2754 24.8704 11.9553C24.8537 10.1289 24.8506 8.30242 24.8725 6.47598C24.8767 6.11718 24.77 6.05546 24.4383 6.05651C19.2962 6.06697 14.1542 6.06697 9.01213 6.05651C8.66367 6.05651 8.56008 6.13287 8.56112 6.49795C8.57368 11.925 8.5695 17.353 8.57159 22.78C8.57159 22.9045 8.53601 23.0363 8.62286 23.189C9.11258 22.9453 9.60544 22.7152 10.0826 22.4557C10.3212 22.326 10.519 22.3166 10.7732 22.4254C12.8807 23.3292 14.9944 24.2173 17.1061 25.1107C18.0029 25.4904 18.9007 25.8691 19.8487 26.2697V26.2666ZM34.8877 26.1201C34.8877 22.0624 34.8846 18.0037 34.894 13.946C34.894 13.6646 34.8406 13.5568 34.534 13.5725C34.0129 13.5997 33.4897 13.5798 32.9686 13.5798C29.144 13.5798 25.3194 13.5798 21.4958 13.5798C21.2991 13.5798 21.094 13.5087 21.095 13.8665C21.1076 18.0947 21.1023 22.3219 21.1044 26.5501C21.1044 26.6463 21.0542 26.7792 21.186 26.8262C21.7082 27.0124 22.1697 27.3639 22.7598 27.3639C26.258 27.3597 29.7561 27.366 33.2543 27.3545C33.5588 27.3545 33.6467 27.4277 33.6425 27.7384C33.6247 29.1475 33.6247 30.5565 33.6425 31.9656C33.6467 32.2804 33.5818 32.384 33.2438 32.3809C31.5999 32.362 29.9549 32.3725 28.31 32.3725C27.3452 32.3725 27.3546 32.3725 27.363 33.3255C27.3651 33.5671 27.43 33.6341 27.6706 33.6309C28.7013 33.6184 29.7331 33.6361 30.7638 33.6184C31.0484 33.6142 31.1405 33.6759 31.1363 33.9793C31.1185 35.3883 31.1437 36.7984 31.1185 38.2064C31.1123 38.582 31.2337 38.651 31.5748 38.6437C32.5406 38.6217 33.5064 38.6186 34.4723 38.6458C34.8239 38.6562 34.8982 38.5548 34.8971 38.2158C34.8846 34.1843 34.8888 30.1517 34.8888 26.1201H34.8877ZM11.0756 23.9223V37.7671C11.0756 38.6405 11.0756 38.6207 11.9431 38.6458C12.2926 38.6562 12.3387 38.5307 12.3366 38.2253C12.323 36.3988 12.3387 34.5724 12.3219 32.7459C12.3188 32.4279 12.4171 32.362 12.7143 32.3652C14.1238 32.3798 15.5333 32.383 16.9418 32.3641C17.2651 32.3599 17.3541 32.4405 17.351 32.769C17.3342 34.5954 17.3489 36.4218 17.3363 38.2483C17.3342 38.5391 17.3855 38.6615 17.713 38.6447C18.299 38.6154 18.8881 38.6165 19.4741 38.6447C19.7922 38.6594 19.8581 38.5527 19.8561 38.2535C19.8425 36.4009 19.854 34.5483 19.8445 32.6957C19.8435 32.4457 19.9052 32.3641 20.1668 32.3662C21.6151 32.3788 23.0643 32.3819 24.5126 32.3641C24.8223 32.3599 24.8715 32.4635 24.8694 32.7407C24.8568 34.4238 24.8631 36.107 24.8631 37.789C24.8631 38.6385 24.8631 38.6228 25.7138 38.6437C26.0351 38.6521 26.1272 38.5736 26.1251 38.2409C26.1104 35.7231 26.1104 33.2052 26.1251 30.6873C26.1272 30.3829 26.0435 30.2354 25.7557 30.114C21.9238 28.5062 18.0981 26.8838 14.2703 25.2655C13.2281 24.8251 12.1859 24.3868 11.0788 23.9202L11.0756 23.9223ZM9.82309 24.0353C9.74043 24.0562 9.68811 24.0594 9.6452 24.0813C8.51404 24.6452 7.38705 25.2163 6.2517 25.7718C6.06858 25.8618 6.06126 25.9873 6.06126 26.1494C6.06335 30.2071 6.06544 34.2648 6.05707 38.3215C6.05707 38.5872 6.14288 38.6437 6.38983 38.6405C7.39438 38.628 8.39998 38.6186 9.40453 38.6447C9.74984 38.6531 9.83251 38.5631 9.83146 38.2179C9.81891 33.6257 9.82309 29.0334 9.82309 24.4412V24.0343V24.0353ZM16.7158 4.80959C16.7943 4.80959 16.8727 4.80959 16.9512 4.80959C19.7451 4.80959 22.539 4.80959 25.3319 4.80959C25.8949 4.80959 26.1104 4.58992 26.1157 4.02818C26.1178 3.74155 26.1157 3.45388 26.1157 3.16726C26.1136 2.49987 25.921 2.3053 25.2555 2.3053C19.5641 2.3053 13.8716 2.3053 8.18023 2.3053C8.11536 2.3053 8.04943 2.30321 7.98455 2.30634C7.56808 2.32831 7.33578 2.55426 7.32113 2.96955C7.30962 3.28233 7.31799 3.59615 7.31799 3.90892C7.31799 4.62757 7.50007 4.80959 8.21895 4.80959C11.0516 4.80959 13.8842 4.80959 16.7179 4.80959H16.7158ZM25.5904 28.614C25.5883 28.6401 25.5872 28.6673 25.5851 28.6935C25.9085 28.8295 26.2318 28.9654 26.5562 29.1014C27.0982 29.3295 27.3693 29.7326 27.3693 30.3107C27.3693 30.4927 27.3818 30.6768 27.3661 30.8578C27.3494 31.0639 27.4258 31.1245 27.6309 31.1235C29.1293 31.1162 30.6288 31.1151 32.1273 31.1235C32.3407 31.1245 32.3889 31.0482 32.3857 30.8515C32.3753 30.226 32.3669 29.6004 32.3889 28.9759C32.3993 28.6882 32.3251 28.6035 32.0268 28.6056C29.9549 28.6192 27.8831 28.6129 25.8101 28.6129C25.7369 28.6129 25.6636 28.6129 25.5914 28.6129L25.5904 28.614ZM16.089 36.1509C16.089 35.4082 16.0785 34.6644 16.0953 33.9217C16.1005 33.6728 16.0189 33.6142 15.7845 33.6205C15.1462 33.6351 14.5068 33.6341 13.8685 33.6205C13.6519 33.6163 13.5766 33.6738 13.5787 33.9018C13.5881 35.3873 13.5881 36.8737 13.5787 38.3592C13.5776 38.5872 13.6519 38.6447 13.8685 38.6405C14.5068 38.628 15.1462 38.6259 15.7845 38.6405C16.0189 38.6458 16.1005 38.5882 16.0953 38.3393C16.0785 37.6102 16.089 36.88 16.089 36.1499V36.1509ZM23.6085 36.1279C23.6085 35.4113 23.5917 34.6937 23.6168 33.9772C23.6273 33.6707 23.5248 33.6089 23.2422 33.6184C22.6301 33.6393 22.0169 33.6361 21.4037 33.6194C21.1641 33.6131 21.094 33.6801 21.096 33.9238C21.1076 35.3967 21.1076 36.8695 21.096 38.3424C21.094 38.5945 21.1798 38.6458 21.41 38.6405C22.0483 38.6269 22.6876 38.6269 23.327 38.6405C23.5478 38.6447 23.6179 38.5809 23.6148 38.356C23.6022 37.6133 23.6095 36.8706 23.6095 36.1268L23.6085 36.1279ZM29.8744 36.7859C29.8744 36.2388 29.867 35.6906 29.8786 35.1435C29.8827 34.9448 29.8304 34.8695 29.618 34.8736C28.9535 34.8862 28.288 34.8862 27.6235 34.8736C27.4101 34.8695 27.363 34.949 27.3651 35.1456C27.3724 36.2137 27.3734 37.2827 27.3651 38.3508C27.363 38.5663 27.4164 38.6468 27.6455 38.6416C28.2974 38.6269 28.9493 38.6269 29.6002 38.6416C29.8315 38.6468 29.8848 38.5631 29.8796 38.3497C29.866 37.8288 29.8754 37.3078 29.8754 36.7859H29.8744Z" fill="white"/>
<path d="M2.30358 39.2535C2.30358 39.6775 2.05559 39.8895 1.55959 39.8895C1.21985 39.8895 1.04999 39.6381 1.04999 39.1353C1.04999 38.802 1.31752 38.6357 1.85258 38.6364C2.15325 38.6364 2.30358 38.8421 2.30358 39.2535Z" fill="white"/>
<path d="M39.3119 38.6364C39.7047 38.6364 39.9011 38.8348 39.9011 39.2316C39.9011 39.6696 39.6862 39.8886 39.2565 39.8886C38.8505 39.8886 38.6475 39.6835 38.6475 39.2735C38.6475 38.8481 38.869 38.6354 39.3119 38.6354V38.6364Z" fill="white"/>
<path d="M18.5951 9.23447C18.5951 9.74286 18.5867 10.2513 18.5993 10.7596C18.6045 10.9772 18.5731 11.085 18.3094 11.0808C17.24 11.0651 16.1716 11.0703 15.1022 11.0776C14.9044 11.0787 14.8301 11.0295 14.8312 10.8172C14.8406 9.73554 14.8406 8.6539 14.8312 7.57122C14.8291 7.35887 14.9044 7.3097 15.1022 7.31075C16.1716 7.31912 17.241 7.3233 18.3094 7.30761C18.5731 7.30343 18.6045 7.41117 18.5993 7.62876C18.5878 8.1633 18.5951 8.69784 18.5951 9.23238V9.23447ZM17.3425 9.18531C17.3425 8.77385 17.1922 8.56813 16.8915 8.56813C16.3565 8.56813 16.0889 8.73445 16.0889 9.0671C16.0889 9.56922 16.2585 9.82062 16.5975 9.82132C17.0935 9.82132 17.3415 9.60931 17.3415 9.18531H17.3425Z" fill="white"/>
<path d="M23.6085 9.19478C23.6085 9.71572 23.6001 10.2377 23.6126 10.7586C23.6179 10.9762 23.5875 11.084 23.3228 11.0808C22.2534 11.0651 21.185 11.0704 20.1155 11.0777C19.9178 11.0787 19.8424 11.0296 19.8445 10.8183C19.8539 9.73664 19.8539 8.655 19.8445 7.57232C19.8424 7.36101 19.9167 7.3108 20.1145 7.31185C21.1839 7.32022 22.2534 7.3244 23.3217 7.30871C23.5854 7.30453 23.6168 7.41227 23.6116 7.62985C23.599 8.1508 23.6074 8.67279 23.6074 9.19373L23.6085 9.19478ZM22.3549 9.23034C22.3549 8.7896 22.1285 8.56923 21.6757 8.56923C21.5973 8.56923 21.5177 8.57969 21.4424 8.56713C21.1693 8.52424 21.0584 8.63199 21.1002 8.90711C21.1138 8.99602 21.1023 9.08912 21.1023 9.18013C21.1023 9.60832 21.3224 9.82242 21.7626 9.82242C22.1581 9.82242 22.3559 9.62541 22.3559 9.23139L22.3549 9.23034Z" fill="white"/>
<path d="M13.5818 14.1992C13.5818 14.7462 13.5755 15.2944 13.5849 15.8415C13.5881 16.0256 13.5316 16.0904 13.3422 16.0884C12.2466 16.081 11.152 16.081 10.0564 16.0884C9.85971 16.0894 9.8189 16.013 9.81995 15.8352C9.82623 14.7536 9.82727 13.6719 9.8189 12.5893C9.81681 12.3874 9.87332 12.3194 10.0826 12.3215C11.1646 12.3309 12.2466 12.3309 13.3296 12.3215C13.5452 12.3194 13.5902 12.3999 13.587 12.5945C13.5766 13.129 13.5839 13.6636 13.5839 14.1981L13.5818 14.1992ZM11.6679 14.8331C12.1088 14.8331 12.3292 14.6068 12.3292 14.1542C12.3292 14.0757 12.3188 13.9962 12.3313 13.9209C12.3742 13.6479 12.2665 13.537 11.9912 13.5788C11.9023 13.5924 11.8092 13.5809 11.7181 13.5809C11.2898 13.5809 11.0756 13.8009 11.0756 14.241C11.0756 14.6364 11.2727 14.8341 11.6669 14.8341L11.6679 14.8331Z" fill="white"/>
<path d="M14.8354 14.1667C14.8354 13.6584 14.8437 13.15 14.8312 12.6416C14.8259 12.4229 14.8584 12.3162 15.121 12.3204C16.1905 12.3361 17.2588 12.3309 18.3283 12.3236C18.5271 12.3225 18.6003 12.3727 18.5982 12.584C18.5888 13.6657 18.5888 14.7473 18.5982 15.83C18.6003 16.0423 18.525 16.0915 18.3272 16.0894C17.2578 16.0821 16.1884 16.0769 15.12 16.0926C14.8552 16.0967 14.8259 15.988 14.8301 15.7704C14.8416 15.2358 14.8343 14.7013 14.8343 14.1667H14.8354ZM17.3426 14.219C17.3426 13.7929 17.187 13.5796 16.8759 13.5789C16.352 13.5789 16.09 13.7379 16.09 14.0559C16.09 14.5733 16.2651 14.832 16.6153 14.832C17.1001 14.832 17.3426 14.6277 17.3426 14.219Z" fill="white"/>
<path d="M9.8231 19.1785C9.8231 18.6701 9.83147 18.1617 9.81891 17.6533C9.81368 17.4347 9.84612 17.328 10.1098 17.3321C11.1792 17.3478 12.2476 17.3426 13.3171 17.3353C13.5159 17.3342 13.5891 17.3845 13.587 17.5958C13.5776 18.6774 13.5776 19.759 13.587 20.8417C13.5891 21.0541 13.5127 21.1022 13.316 21.1011C12.2466 21.0938 11.1772 21.0917 10.1088 21.1011C9.89321 21.1032 9.81159 21.0488 9.81891 20.8197C9.83461 20.2727 9.82415 19.7245 9.82415 19.1774L9.8231 19.1785ZM11.6679 19.8438C12.1088 19.8438 12.3292 19.6175 12.3292 19.1649C12.3292 19.0864 12.3188 19.0069 12.3313 18.9316C12.3742 18.6586 12.2665 18.5477 11.9913 18.5895C11.9023 18.6031 11.8092 18.5916 11.7181 18.5916C11.2898 18.5916 11.0756 18.8116 11.0756 19.2517C11.0756 19.6471 11.2727 19.8448 11.6669 19.8448L11.6679 19.8438Z" fill="white"/>
<path d="M18.5951 19.2109C18.5951 19.758 18.5888 20.3061 18.5982 20.8532C18.6014 21.0373 18.5449 21.1022 18.3555 21.1001C17.2599 21.0928 16.1653 21.0928 15.0697 21.1001C14.873 21.1011 14.8322 21.0248 14.8333 20.8469C14.8395 19.7653 14.8406 18.6837 14.8322 17.601C14.8301 17.3991 14.8866 17.3311 15.0959 17.3332C16.1779 17.3426 17.2599 17.3426 18.3429 17.3332C18.5585 17.3311 18.6035 17.4116 18.6003 17.6062C18.5899 18.1407 18.5972 18.6753 18.5972 19.2098L18.5951 19.2109ZM17.3425 19.1983C17.3425 18.7938 17.15 18.5916 16.7649 18.5916C16.3143 18.5916 16.0889 18.8134 16.0889 19.2569C16.0889 19.6488 16.2881 19.8448 16.6864 19.8448C17.1238 19.8448 17.3425 19.6296 17.3425 19.1994V19.1983Z" fill="white"/>
<path d="M9.8231 9.15503C9.8231 8.64664 9.83147 8.13825 9.81891 7.62986C9.81368 7.41123 9.84612 7.30453 10.1098 7.30871C11.1792 7.3244 12.2476 7.31917 13.3171 7.31185C13.5159 7.3108 13.5891 7.36102 13.587 7.57232C13.5776 8.65396 13.5776 9.73559 13.587 10.8183C13.5891 11.0306 13.5127 11.0798 13.316 11.0777C12.2466 11.0704 11.1772 11.0683 10.1088 11.0777C9.89321 11.0798 9.81159 11.0254 9.81891 10.7963C9.83461 10.2492 9.82415 9.70107 9.82415 9.15398L9.8231 9.15503ZM11.7014 9.82137C12.12 9.82137 12.3292 9.66167 12.3292 9.34227C12.3292 8.82621 12.1664 8.56818 11.8406 8.56818C11.3306 8.56818 11.0756 8.73416 11.0756 9.06611C11.0756 9.56892 11.2839 9.82033 11.7004 9.82033L11.7014 9.82137Z" fill="white"/>
<path d="M27.996 26.1087C26.2349 26.1087 24.4728 26.1014 22.7117 26.116C22.4145 26.1181 22.3444 26.0355 22.3475 25.7468C22.3632 24.3126 22.3611 22.8774 22.3475 21.4422C22.3454 21.1765 22.4051 21.0897 22.6876 21.0907C26.2234 21.1012 29.7592 21.1001 33.295 21.0907C33.5734 21.0907 33.6414 21.1681 33.6393 21.439C33.6257 22.8607 33.6226 24.2823 33.6404 25.7039C33.6445 26.0219 33.5744 26.1202 33.2396 26.1171C31.491 26.0993 29.7425 26.1087 27.995 26.1087H27.996ZM28.0044 24.8555C29.3605 24.8555 30.7177 24.8503 32.0739 24.8607C32.3051 24.8628 32.3941 24.8126 32.3868 24.5605C32.3679 23.9224 32.3679 23.2822 32.3868 22.6441C32.3941 22.392 32.303 22.3449 32.0739 22.3449C29.3605 22.3523 26.6472 22.3523 23.9349 22.3449C23.689 22.3449 23.5938 22.3983 23.6022 22.664C23.622 23.2895 23.622 23.9161 23.6022 24.5417C23.5938 24.8095 23.6901 24.8628 23.9349 24.8607C25.2911 24.8503 26.6482 24.8555 28.0044 24.8555Z" fill="white"/>
<path d="M27.9856 19.8437C26.2245 19.8437 24.4623 19.8385 22.7012 19.85C22.4365 19.8521 22.3455 19.7946 22.3486 19.5101C22.3632 18.0623 22.3632 16.6145 22.3486 15.1668C22.3455 14.8843 22.4344 14.8257 22.7002 14.8268C26.236 14.8352 29.7718 14.8352 33.3076 14.8268C33.5535 14.8268 33.6425 14.8791 33.6404 15.1458C33.6268 16.6062 33.6278 18.0675 33.6404 19.5278C33.6425 19.7925 33.5556 19.849 33.3087 19.8479C31.534 19.8385 29.7603 19.8427 27.9856 19.8427V19.8437ZM27.9751 18.5916C29.3313 18.5916 30.6885 18.5832 32.0446 18.5979C32.324 18.601 32.3962 18.5194 32.3878 18.2485C32.368 17.6229 32.3732 16.9963 32.3857 16.3708C32.3899 16.1543 32.3324 16.08 32.1043 16.081C29.3648 16.0884 26.6253 16.0884 23.8868 16.081C23.6608 16.081 23.6001 16.1522 23.6043 16.3697C23.6168 16.9953 23.6221 17.6219 23.6022 18.2474C23.5938 18.5163 23.6629 18.601 23.9444 18.5979C25.288 18.5832 26.6315 18.5916 27.9751 18.5916Z" fill="white"/>
<path d="M21.9478 29.7616C21.8045 30.0994 21.6789 30.4143 21.5376 30.7218C21.4738 30.862 21.3671 30.7836 21.2718 30.7438C19.1372 29.84 17.0025 28.9362 14.8657 28.0355C14.7266 27.977 14.6334 27.9131 14.7402 27.752C14.7475 27.7416 14.7496 27.728 14.7538 27.7154C14.9861 27.085 15.4113 26.9012 16.0293 27.1642C17.8993 27.9571 19.7713 28.749 21.6402 29.5461C21.7563 29.5952 21.9342 29.59 21.9478 29.7616Z" fill="white"/>
<path d="M13.7879 26.3419C13.655 26.6526 13.5242 26.9654 13.3892 27.275C13.3495 27.366 13.2752 27.3671 13.1936 27.3273C13.1235 27.2928 13.0513 27.2635 12.9791 27.2332C12.0551 26.8419 12.0603 26.8451 12.4747 25.9434C12.5563 25.7666 12.6222 25.7007 12.8158 25.799C13.0827 25.9339 13.3641 26.0385 13.6393 26.1588C13.7178 26.1934 13.8277 26.208 13.789 26.3419H13.7879Z" fill="white"/>
</g>
<defs>
<clipPath id="clip0_23_37">
<rect width="38.85" height="38.85" fill="white" transform="translate(1.04999 1.05005)"/>
</clipPath>
</defs>
</svg>
