<svg width="40" height="40" viewBox="0 0 40 40" fill="none" xmlns="http://www.w3.org/2000/svg">
<g clip-path="url(#clip0_37_102)">
<path d="M0 31.764V22.3187C0.314368 21.5973 0.86782 21.3347 1.64204 21.3856C2.33691 21.4314 3.03686 21.3999 3.73478 21.3937C4.1285 21.3907 4.47034 21.5179 4.70535 21.8262C4.86101 22.0308 4.96071 21.9809 5.12553 21.8598C6.14188 21.1149 7.27117 20.6133 8.50117 20.3548C8.76772 20.2988 8.81758 20.1818 8.81351 19.9457C8.80232 19.2863 8.79723 18.6259 8.81554 17.9665C8.82266 17.6887 8.74636 17.6032 8.45743 17.5941C4.63108 17.473 1.29206 14.8039 0.304195 11.0815C0.174988 10.5941 0.0997026 10.0924 0 9.59789C0 9.06468 0 8.53146 0 7.99825C0.0233996 7.91379 0.0569729 7.83034 0.068164 7.74385C0.757943 2.50939 5.64134 -0.916824 10.7831 0.22796C15.0968 1.18754 18.0614 5.36575 17.5344 9.7546C17.5009 10.0314 17.5965 10.067 17.8315 10.065C18.8845 10.0558 19.9385 10.0497 20.9915 10.068C21.3018 10.0731 21.3974 9.99577 21.3954 9.67319C21.3821 7.1221 21.3852 4.57 21.3893 2.01891C21.3913 0.775421 22.1676 0.00205568 23.4118 0.0010381C27.93 -0.000997074 32.4481 -0.000997074 36.9663 0.0010381C38.2024 0.0010381 38.9898 0.787632 38.9898 2.02298C38.9919 6.54208 38.9919 11.0612 38.9898 15.5803C38.9898 16.8238 38.2126 17.6022 36.9744 17.6043C35.5277 17.6073 34.081 17.6083 32.6343 17.6012C32.4288 17.6002 32.2792 17.6582 32.1337 17.8068C31.5396 18.4153 30.9322 19.0106 30.334 19.615C29.8477 20.1055 29.2719 20.2673 28.6299 20.0139C27.9676 19.7524 27.6777 19.2151 27.6644 18.514C27.6471 17.5798 27.6451 17.588 26.7193 17.5992C26.4914 17.6022 26.411 17.6572 26.4131 17.8963C26.4242 18.9627 26.4273 20.0292 26.412 21.0956C26.408 21.3703 26.526 21.3999 26.7508 21.3978C27.6522 21.3887 28.5526 21.3917 29.454 21.3948C30.5914 21.3988 31.4338 22.1875 31.445 23.2539C31.4562 24.3315 30.6107 25.1415 29.453 25.1537C28.9077 25.1598 28.3613 25.1578 27.816 25.1537C27.6471 25.1527 27.5668 25.168 27.6156 25.3857C27.7346 25.9169 27.6451 26.4237 27.3155 26.8673C27.2147 27.0027 27.2168 27.0841 27.3134 27.2266C27.7865 27.9297 27.7967 28.6542 27.3267 29.3614C27.2107 29.5355 27.2412 29.6301 27.3419 29.7848C27.9513 30.7209 27.6756 31.9054 26.705 32.4407C26.4578 32.577 26.41 32.7276 26.412 32.9769C26.4222 34.0434 26.4171 35.1098 26.4161 36.1762C26.4161 36.5446 26.4395 36.915 26.4008 37.2793C26.3042 38.1941 25.7294 38.712 24.9012 38.999H10.2806C9.13398 38.5848 8.71889 37.7453 8.80028 36.5649C8.85115 35.819 8.79519 35.0671 8.81656 34.3191C8.82572 34.02 8.72194 33.9233 8.43708 33.906C7.53365 33.851 6.61395 33.735 5.81226 33.3382C4.55376 32.7164 3.24847 32.633 1.89944 32.7001C1.81093 32.7042 1.7214 32.693 1.63288 32.7022C0.859681 32.7856 0.303177 32.4926 0 31.7619L0 31.764ZM16.4153 30.1898C18.4073 30.1898 20.4004 30.1725 22.3924 30.204C22.8014 30.2101 22.8411 29.9242 23.015 29.7176C23.1778 29.5243 22.9998 29.4194 22.9245 29.2902C22.5409 28.6267 22.5308 27.9582 22.9428 27.312C23.073 27.1085 23.071 26.9864 22.9428 26.7839C22.2388 25.6747 22.8482 24.2257 24.1301 23.9509C24.3742 23.899 24.6347 23.9072 24.888 23.9123C25.0854 23.9163 25.1535 23.8492 25.1535 23.6508C25.1485 21.7214 25.1485 19.7921 25.1535 17.8627C25.1535 17.6643 25.0844 17.5982 24.888 17.6022C24.3681 17.6124 23.8472 17.6022 23.3274 17.6063C22.5572 17.6114 21.9854 17.2695 21.6222 16.6009C21.5205 16.4137 21.4106 16.3598 21.2112 16.3608C17.6077 16.3659 14.0031 16.3669 10.3996 16.3598C10.1391 16.3598 10.0517 16.4239 10.0557 16.6966C10.071 17.7243 10.071 18.7531 10.0557 19.7809C10.0517 20.0587 10.1137 20.1411 10.4118 20.137C11.947 20.1167 13.4822 20.1187 15.0185 20.1279C15.9015 20.133 16.454 20.7893 16.337 21.6573C16.1569 22.9873 15.1406 23.8909 13.7885 23.9082C13.002 23.9184 12.2146 23.9163 11.4282 23.9062C11.2369 23.9041 11.1321 23.9591 11.0578 24.1412C10.8767 24.5798 10.6082 24.9665 10.2572 25.286C10.0995 25.4295 10.0578 25.5842 10.0588 25.7867C10.0649 27.1319 10.072 28.4772 10.0547 29.8224C10.0506 30.1348 10.1554 30.1989 10.4423 30.1969C12.4343 30.1857 14.4274 30.1908 16.4194 30.1908L16.4153 30.1898ZM30.2343 1.26284C28.0134 1.26284 25.7935 1.26284 23.5725 1.26284C22.8014 1.26284 22.6335 1.43176 22.6335 2.20208C22.6335 6.60619 22.6335 11.0103 22.6335 15.4144C22.6335 16.1766 22.8187 16.3628 23.5736 16.3628C25.2482 16.3628 26.9238 16.3689 28.5984 16.3577C28.8649 16.3557 28.9473 16.432 28.9382 16.6986C28.9188 17.2695 28.9311 17.8403 28.9331 18.4122C28.9331 18.573 28.8985 18.7521 29.105 18.8305C29.3065 18.9068 29.4082 18.7582 29.5232 18.6442C30.2068 17.9635 30.8925 17.2858 31.566 16.5958C31.7298 16.4279 31.8926 16.3567 32.1287 16.3587C33.7025 16.3689 35.2754 16.3648 36.8493 16.3638C37.5329 16.3638 37.7303 16.1664 37.7303 15.4755C37.7313 11.0337 37.7313 6.59093 37.7303 2.14916C37.7303 1.44906 37.5472 1.26386 36.8564 1.26386C34.6487 1.26284 32.441 1.26386 30.2323 1.26386L30.2343 1.26284ZM17.6138 37.7382C19.8469 37.7382 22.0801 37.7392 24.3132 37.7382C24.9602 37.7382 25.1474 37.5459 25.1485 36.8957C25.1505 35.6644 25.1485 34.4331 25.1485 33.2028C25.1485 32.7073 25.1485 32.6981 24.6662 32.7063C23.8381 32.7205 23.2154 32.3837 22.8472 31.6368C22.7464 31.4333 22.602 31.4567 22.4412 31.4567C18.4318 31.4567 14.4223 31.4597 10.4118 31.4506C10.131 31.4506 10.0476 31.5167 10.0506 31.8057C10.0649 33.4806 10.0578 35.1566 10.0578 36.8315C10.0578 37.553 10.2388 37.7372 10.952 37.7382C13.173 37.7392 15.3929 37.7382 17.6138 37.7382ZM5.02888 27.5888C5.02888 28.8577 5.03498 30.1257 5.02379 31.3946C5.02176 31.6205 5.09501 31.7324 5.29848 31.821C6.29449 32.2524 7.33119 32.5149 8.40859 32.6462C8.73212 32.6859 8.81961 32.6187 8.81656 32.289C8.80232 30.4248 8.80944 28.5596 8.80944 26.6944C8.80944 26.383 8.65819 26.2612 8.35569 26.329C7.81445 26.4505 7.54383 26.2405 7.54383 25.6992C7.54383 25.5852 7.54891 25.4702 7.54383 25.3562C7.53772 25.2148 7.59673 25.1588 7.74018 25.1425C9.0709 24.996 9.83699 24.2226 10.1198 22.9466C10.1758 22.6952 10.2836 22.6281 10.5288 22.6301C11.6316 22.6413 12.7355 22.6403 13.8393 22.6322C14.4203 22.6281 14.8669 22.2811 15.0388 21.7509C15.1182 21.5067 15.106 21.3846 14.7896 21.3876C13.2554 21.4019 11.7201 21.3703 10.1859 21.4039C8.31601 21.4446 6.68313 22.1295 5.26287 23.3394C5.09399 23.4829 5.02379 23.6335 5.02583 23.8583C5.03702 25.1018 5.03091 26.3443 5.03091 27.5878L5.02888 27.5888ZM15.6889 15.0918C17.4775 15.0918 19.266 15.0888 21.0545 15.0949C21.2774 15.0949 21.3984 15.0695 21.3943 14.7927C21.3781 13.7395 21.3781 12.6863 21.3943 11.6331C21.3984 11.3573 21.2794 11.3268 21.0545 11.3278C17.6423 11.3319 14.23 11.3298 10.8177 11.3319C10.2785 11.3319 10.0618 11.5537 10.0598 12.1001C10.0557 12.9885 10.07 13.8768 10.0527 14.7642C10.0476 15.041 10.1442 15.0979 10.3996 15.0969C12.1627 15.0868 13.9258 15.0918 15.6899 15.0918H15.6889ZM8.80639 6.29786C7.7534 6.29786 6.70042 6.30498 5.64642 6.29176C5.40938 6.2887 5.31374 6.37214 5.26694 6.595C4.95563 8.06846 4.95359 9.53989 5.27 11.0123C5.31985 11.2464 5.41243 11.342 5.67084 11.3369C6.64752 11.3196 7.62522 11.3247 8.60189 11.3339C8.81554 11.3359 8.93457 11.2789 9.04242 11.0754C9.40053 10.4018 9.98349 10.069 10.7465 10.0609C11.2155 10.0558 11.6866 10.0446 12.1546 10.066C12.4079 10.0772 12.5056 10.009 12.53 9.74544C12.6205 8.75228 12.5432 7.77336 12.3845 6.79037C12.3163 6.36807 12.1352 6.27446 11.7364 6.28667C10.7608 6.31618 9.78306 6.29684 8.80537 6.29684L8.80639 6.29786ZM3.77649 27.0393C3.77649 25.7073 3.76835 24.3763 3.78259 23.0453C3.78565 22.7482 3.73173 22.6138 3.39396 22.6291C2.79981 22.6576 2.20261 22.6474 1.60643 22.6322C1.34802 22.625 1.2534 22.6993 1.25442 22.971C1.26256 25.6971 1.26256 28.4242 1.25442 31.1504C1.25442 31.4129 1.35311 31.4668 1.58812 31.4607C2.15785 31.4475 2.73063 31.4333 3.29934 31.4648C3.66967 31.4851 3.79684 31.3987 3.78768 30.9967C3.75818 29.6789 3.77649 28.3591 3.77649 27.0403V27.0393ZM11.8219 5.01977C11.1748 3.55241 10.2429 2.39542 8.9946 1.4857C8.81859 1.35748 8.7077 1.41447 8.56425 1.51826C7.3668 2.38626 6.46541 3.49441 5.85702 4.84068C5.8326 4.89359 5.7858 4.94854 5.84176 5.01875H11.8209L11.8219 5.01977ZM2.86798 11.3308C3.15895 11.3308 3.45093 11.3227 3.7419 11.3339C3.96369 11.3431 4.05627 11.3105 4.00133 11.0398C3.70019 9.55821 3.70019 8.07049 3.99828 6.58889C4.0522 6.32025 3.96064 6.29175 3.74088 6.29583C3.15895 6.30498 2.57599 6.30905 1.99405 6.29379C1.76209 6.28768 1.66137 6.37214 1.59626 6.58889C1.18727 7.95652 1.14658 9.32823 1.51283 10.7091C1.62271 11.1243 1.88452 11.3319 2.29825 11.3319C2.4885 11.3319 2.67773 11.3319 2.86798 11.3319V11.3308ZM13.8403 8.86116C13.8261 9.09419 13.8139 9.44932 13.7803 9.80243C13.761 10.0029 13.8261 10.068 14.0286 10.065C14.6624 10.0548 15.2972 10.0487 15.9311 10.068C16.1803 10.0751 16.2597 9.9805 16.2892 9.75358C16.4285 8.6668 16.3227 7.60546 16.0023 6.55938C15.9453 6.37214 15.8619 6.29074 15.6584 6.29481C15.05 6.306 14.4406 6.30702 13.8322 6.29481C13.5911 6.28972 13.5697 6.37723 13.6145 6.58685C13.7661 7.29509 13.8169 8.01656 13.8403 8.86218V8.86116ZM8.80842 16.259C8.80842 15.0338 8.80639 13.9084 8.81046 12.784C8.81046 12.5764 8.68634 12.5733 8.53576 12.5733C7.93958 12.5764 7.34442 12.5743 6.74824 12.5743C6.44099 12.5743 6.13375 12.5743 5.77868 12.5743C6.45218 14.1017 7.41767 15.2893 8.80842 16.259ZM2.27892 5.03097C2.93004 5.03097 3.49977 5.01367 4.06746 5.03809C4.34724 5.0503 4.4622 4.94244 4.5558 4.69516C4.94749 3.66842 5.52739 2.75157 6.24871 1.92326C6.3067 1.8561 6.41454 1.81234 6.39012 1.65563C4.62803 2.27738 3.28713 3.37841 2.2779 5.02995L2.27892 5.03097ZM2.27078 12.5753C3.28815 14.2218 4.61684 15.331 6.383 15.909C5.56605 14.9392 4.90476 13.887 4.46322 12.7025C4.41947 12.5865 4.32689 12.5743 4.21803 12.5743C3.59947 12.5774 2.9809 12.5753 2.27078 12.5753ZM15.3318 5.02995C14.3144 3.38044 12.9786 2.27331 11.2094 1.69532C12.0325 2.65795 12.6917 3.71014 13.1384 4.89054C13.173 4.98212 13.2269 5.03198 13.3327 5.03097C13.9736 5.02791 14.6146 5.02995 15.3308 5.02995H15.3318ZM28.0704 23.9082C28.5139 23.9082 28.9575 23.9113 29.4011 23.9082C29.8996 23.9041 30.1773 23.6721 30.1763 23.2712C30.1743 22.8723 29.8976 22.6423 29.395 22.6393C28.7235 22.6342 28.052 22.6383 27.3806 22.6383C26.3724 22.6383 26.3795 22.6383 26.4141 23.6396C26.4212 23.8614 26.4965 23.9194 26.704 23.9133C27.1598 23.9011 27.6166 23.9092 28.0724 23.9092L28.0704 23.9082ZM25.1739 25.1588C24.9592 25.1588 24.7435 25.1456 24.5299 25.1619C24.1463 25.1914 23.9052 25.4448 23.9073 25.7918C23.9083 26.1388 24.1524 26.4013 24.5329 26.4186C24.9491 26.4379 25.3672 26.4369 25.7823 26.4186C26.1506 26.4023 26.4151 26.1204 26.4141 25.7897C26.4141 25.457 26.1536 25.1924 25.7792 25.1629C25.5788 25.1466 25.3753 25.1598 25.1729 25.1598L25.1739 25.1588ZM25.1566 28.9361C25.3713 28.9361 25.5869 28.9493 25.8006 28.933C26.1485 28.9056 26.4029 28.6441 26.4131 28.3245C26.4242 28.006 26.1872 27.7119 25.8362 27.6885C25.3835 27.659 24.9267 27.658 24.4739 27.6885C24.1148 27.713 23.8971 27.9908 23.9073 28.3266C23.9174 28.6583 24.1535 28.9056 24.5126 28.933C24.7262 28.9493 24.9419 28.9361 25.1566 28.9361ZM25.1607 31.4526C25.1607 31.4526 25.1607 31.4526 25.1607 31.4536C25.3631 31.4536 25.5656 31.4638 25.767 31.4516C26.1404 31.4282 26.4049 31.1707 26.4141 30.8369C26.4232 30.5022 26.1699 30.2183 25.7955 30.1989C25.3672 30.1775 24.9368 30.1776 24.5085 30.1999C24.1413 30.2193 23.9134 30.4727 23.9073 30.8074C23.9012 31.1575 24.1413 31.419 24.5177 31.4485C24.7313 31.4648 24.947 31.4516 25.1617 31.4516L25.1607 31.4526Z" fill="white"/>
<path d="M35.8685 23.9092C36.7943 23.9092 37.7201 23.9163 38.646 23.9041C38.8932 23.901 39 23.9417 38.999 24.2277C38.9949 25.1557 39.0071 25.1557 38.0742 25.1557C36.4006 25.1557 34.726 25.1486 33.0524 25.1618C32.7645 25.1639 32.6882 25.0784 32.6902 24.7965C32.6964 23.9092 32.6841 23.9092 33.5866 23.9092C34.3475 23.9092 35.1085 23.9092 35.8695 23.9092H35.8685Z" fill="white"/>
<path d="M35.8288 22.6383C34.8908 22.6383 33.9518 22.6301 33.0138 22.6433C32.7584 22.6474 32.6943 22.5609 32.6913 22.3177C32.6801 21.3927 32.6719 21.3927 33.5866 21.3927C35.2601 21.3927 36.9337 21.3978 38.6073 21.3876C38.883 21.3856 39.0061 21.4263 38.999 21.7499C38.9807 22.6383 38.9969 22.6383 38.1108 22.6383C37.3498 22.6383 36.5888 22.6383 35.8288 22.6383Z" fill="white"/>
<path d="M34.6019 26.4247C35.134 26.4247 35.6661 26.4328 36.1981 26.4206C36.4077 26.4155 36.4769 26.4735 36.483 26.6943C36.5074 27.6712 36.5156 27.6712 35.5328 27.6712C34.6965 27.6712 33.8602 27.6641 33.0239 27.6753C32.7838 27.6783 32.6953 27.6152 32.6913 27.3578C32.678 26.4236 32.6679 26.4236 33.614 26.4236C33.9437 26.4236 34.2733 26.4236 34.6019 26.4236V26.4247Z" fill="white"/>
<path d="M38.9908 19.5183C38.9908 19.9213 38.783 20.1227 38.3672 20.1227C37.9514 20.1227 37.7398 19.909 37.7324 19.4817C37.7324 19.4308 37.7395 19.3799 37.7313 19.33C37.6713 18.9729 37.8026 18.808 38.1769 18.8752C38.238 18.8864 38.3031 18.8772 38.3662 18.8772C38.7833 18.8772 38.9919 19.0909 38.9919 19.5183H38.9908Z" fill="white"/>
<path d="M33.2874 20.1228C33.1867 20.1228 33.085 20.1147 32.9843 20.1248C32.7798 20.1442 32.7004 20.075 32.6913 19.8531C32.6506 18.859 32.7452 18.7674 33.7585 18.8752C33.8958 18.8895 33.9711 18.9221 33.962 19.0727C33.9548 19.1988 33.962 19.325 33.962 19.4512C33.962 19.8989 33.7371 20.1228 33.2874 20.1228Z" fill="white"/>
<path d="M36.4769 19.5081C36.4769 19.9178 36.2338 20.1227 35.7475 20.1227C35.3921 20.1227 35.2144 19.8873 35.2144 19.4165C35.2144 19.057 35.4731 18.8772 35.9906 18.8772C36.3148 18.8772 36.4769 19.0875 36.4769 19.5081Z" fill="white"/>
<path d="M35.2174 7.35608C35.1828 9.31493 34.4595 10.7721 33.4492 12.1123C32.5885 13.254 31.5681 14.236 30.4144 15.0806C30.2933 15.1691 30.1977 15.2617 30.0207 15.1284C28.1385 13.714 26.527 12.0685 25.6226 9.84916C24.6764 7.52398 25.1698 5.18251 26.9411 3.71922C28.5648 2.37804 30.4042 2.11245 32.3097 3.00488C34.2163 3.8973 35.1452 5.48982 35.2164 7.35506L35.2174 7.35608ZM26.4192 7.57893C26.4151 8.13046 26.525 8.66164 26.7152 9.17755C27.3796 10.9736 28.6289 12.3229 30.04 13.5511C30.1977 13.6885 30.2821 13.5939 30.39 13.5013C31.0167 12.963 31.6098 12.3901 32.1317 11.749C32.9975 10.6846 33.7046 9.54185 33.9131 8.14776C34.2346 5.99963 32.6831 3.9665 30.5863 3.80368C28.2759 3.62357 26.4202 5.30564 26.4192 7.57994V7.57893Z" fill="white"/>
<path d="M27.0072 15.0918C26.6145 15.0918 26.4181 14.8893 26.4181 14.4843C26.4181 14.0582 26.6301 13.8452 27.054 13.8452C27.4616 13.8452 27.6654 14.0548 27.6654 14.4741C27.6654 14.8933 27.446 15.0992 27.0072 15.0918Z" fill="white"/>
<path d="M25.1485 14.4802C25.1485 14.8879 24.9019 15.0914 24.4088 15.0907C24.0711 15.0907 23.9022 14.8357 23.9022 14.3255C23.9022 14.0046 24.1541 13.8445 24.6581 13.8452C24.9843 13.8452 25.1474 14.0569 25.1474 14.4802H25.1485Z" fill="white"/>
<path d="M17.6097 36.4855C16.8111 36.4855 16.0114 36.4896 15.2128 36.4855C14.346 36.4805 13.8505 35.9818 13.8424 35.1118C13.8383 34.719 13.8332 34.3252 13.8465 33.9324C13.8688 33.2842 14.2992 32.806 14.9452 32.7286C15.2453 32.693 15.5526 32.7052 15.8568 32.7042C17.2018 32.7022 18.5457 32.7011 19.8907 32.7042C20.9019 32.7062 21.3852 33.1906 21.3872 34.196C21.3872 34.5135 21.3923 34.8299 21.3862 35.1474C21.3699 35.9595 20.8541 36.4774 20.0453 36.4845C19.2334 36.4917 18.4216 36.4866 17.6097 36.4866V36.4855ZM17.624 33.9701H15.9504C15.0815 33.9701 15.0978 33.9701 15.0795 34.8391C15.0724 35.1729 15.1935 35.2339 15.4936 35.2309C16.7236 35.2166 17.9526 35.2248 19.1826 35.2248C20.144 35.2248 20.1318 35.2248 20.1247 34.2703C20.1226 34.0016 20.0199 33.963 19.791 33.966C19.0686 33.9772 18.3453 33.9701 17.6229 33.9701H17.624Z" fill="white"/>
<path d="M17.5914 13.8453C16.8569 13.8453 16.1223 13.8381 15.3878 13.8493C15.1578 13.8534 15.0866 13.7822 15.0815 13.5481C15.0622 12.5753 15.0541 12.5753 16.0379 12.5753C17.2913 12.5753 18.5457 12.5814 19.7991 12.5702C20.0433 12.5682 20.1216 12.6343 20.1236 12.8877C20.1328 13.8453 20.142 13.8453 19.1856 13.8453C18.6535 13.8453 18.1215 13.8453 17.5904 13.8453H17.5914Z" fill="white"/>
<path d="M32.6933 7.55356C32.6902 8.95274 31.5722 10.0639 30.1722 10.0599C28.7876 10.0558 27.6502 8.9039 27.6695 7.52507C27.6888 6.15133 28.8151 5.03402 30.1824 5.03199C31.5722 5.02995 32.6974 6.15947 32.6943 7.55356H32.6933ZM28.9351 7.54542C28.9341 8.23942 29.4937 8.80621 30.1834 8.80825C30.8671 8.81028 31.444 8.23738 31.446 7.55255C31.4491 6.86262 30.8864 6.30092 30.1906 6.29888C29.4896 6.29684 28.9361 6.84532 28.9351 7.5444V7.54542Z" fill="white"/>
</g>
<defs>
<clipPath id="clip0_37_102">
<rect width="39" height="39" fill="white"/>
</clipPath>
</defs>
</svg>
