<svg width="42" height="42" viewBox="0 0 42 42" fill="none" xmlns="http://www.w3.org/2000/svg">
<g clip-path="url(#clip0_37_132)">
<g clip-path="url(#clip1_37_132)">
<path d="M40.95 15.3642C40.3207 16.095 39.7961 16.9069 39.2042 17.6668C39.092 17.8106 39.0845 17.9825 39.1401 18.1263C39.1999 18.2787 39.3741 18.2063 39.498 18.2084C40.4628 18.2236 40.4521 18.2203 40.4329 19.2073C40.4275 19.4862 40.3207 19.5381 40.076 19.5414C39.0909 19.5554 39.0995 19.5619 39.1134 20.5403C39.1166 20.7813 39.1732 20.9002 39.4264 20.8602C39.4521 20.8559 39.4798 20.8602 39.5065 20.8602C40.5376 20.8689 40.5333 20.8678 40.4307 21.9359C40.4147 22.1056 40.3624 22.1737 40.1925 22.1694C39.9125 22.1607 39.6326 22.1737 39.3538 22.1661C39.1839 22.1618 39.1134 22.2256 39.1187 22.4007C39.1272 22.684 39.1315 22.9672 39.1176 23.2494C39.0963 23.6774 38.749 23.4937 38.577 23.472C38.327 23.4407 37.9295 23.7369 37.8366 23.2504C37.7864 22.991 37.8173 22.7121 37.8302 22.444C37.8408 22.2353 37.7693 22.1391 37.5577 22.1672C37.5182 22.1726 37.4776 22.1672 37.438 22.1672C36.4102 22.1597 36.4145 22.1597 36.5181 21.0883C36.5352 20.9143 36.5918 20.8538 36.7596 20.8581C37.0256 20.8667 37.2927 20.8484 37.5588 20.8635C37.7725 20.8754 37.8238 20.7878 37.8312 20.5824C37.8729 19.5608 37.8782 19.55 36.8728 19.5424C36.5876 19.5403 36.516 19.443 36.5149 19.1684C36.5117 18.2138 36.5021 18.2171 37.4049 18.2063C37.5417 18.2052 37.7361 18.2874 37.8035 18.1263C37.875 17.9544 37.827 17.7695 37.6987 17.6009C37.1944 16.9393 36.7169 16.2572 36.204 15.6031C36.0138 15.361 36.048 15.2572 36.2852 15.0831C37.0438 14.5253 37.0352 14.5134 37.609 15.2885C37.8408 15.601 38.0823 15.9058 38.3024 16.2269C38.4296 16.4128 38.5054 16.4247 38.6422 16.2323C38.9905 15.7393 39.373 15.2702 39.7127 14.7718C39.8719 14.5372 39.9884 14.5588 40.1797 14.7167C40.4254 14.9199 40.6936 15.095 40.9521 15.282V15.3631L40.95 15.3642Z" fill="white"/>
<path d="M21.3004 28.3053C21.6882 29.2458 21.9713 30.1528 22.0857 31.1085C22.6583 35.8737 19.7917 40.2606 15.2306 41.5968C14.5884 41.7849 13.9335 41.9232 13.2668 41.933C11.3511 41.9622 9.42468 42.1481 7.52927 41.7395C2.9414 40.7514 -0.256433 36.4931 0.0160181 31.7571C0.0993562 30.3117 0.502157 28.955 1.17314 27.6729C2.89118 24.3876 4.59534 21.0947 6.31125 17.8084C6.4587 17.5251 6.50143 17.2397 6.53349 16.9251C6.6617 15.6582 6.39779 14.5004 5.71399 13.4323C5.57723 13.2193 5.50885 12.9599 5.36568 12.7512C5.12315 12.3977 5.18191 12.0972 5.40201 11.7577C5.91379 10.9675 6.61041 10.4756 7.53568 10.347C7.77074 10.3145 7.87758 10.24 7.83591 9.9978C7.83377 9.98483 7.83591 9.97078 7.83591 9.9578C7.83377 8.96432 7.83484 8.95567 8.83383 8.9827C9.3392 8.99675 9.84778 9.02486 10.3467 9.09837C10.632 9.14053 10.8083 9.07243 11.0038 8.86379C13.2283 6.50062 15.908 4.92662 19.0417 4.14286C19.3408 4.06827 19.4562 4.12773 19.515 4.43907C19.6827 5.33742 19.6924 5.32552 18.8259 5.56876C16.4048 6.24874 14.2914 7.48005 12.4676 9.22594C12.4013 9.28972 12.3426 9.36107 12.2283 9.48539C13.1087 9.67025 13.7454 10.3016 14.6611 10.3632C15.737 10.4345 16.471 11.1329 16.9497 12.1004C17.0287 12.2593 16.9807 12.3772 16.9134 12.5123C16.5479 13.2453 16.1943 13.9847 15.8203 14.7144C15.6996 14.9501 15.6462 15.1847 15.6526 15.4484C15.6633 15.9879 15.6718 16.5273 15.6505 17.0668C15.6376 17.3867 15.7616 17.6332 15.9357 17.9002C17.3247 13.0593 22.3998 10.4194 27.0475 12.1394C31.2304 13.6874 33.4934 18.271 32.2604 22.6006C31.0776 26.7518 26.525 29.9853 21.2982 28.301L21.3004 28.3053ZM11.1043 18.2105C10.0519 18.2105 8.99837 18.2202 7.94596 18.204C7.66817 18.1997 7.52179 18.2905 7.39251 18.5402C5.70331 21.8104 4.00343 25.0751 2.30354 28.3399C1.52679 29.8328 1.20733 31.4122 1.34515 33.0997C1.64752 36.8034 4.6103 40.0141 8.25794 40.5363C9.75589 40.7514 11.2645 40.6227 12.7689 40.6357C13.2497 40.64 13.7273 40.5914 14.1985 40.493C19.6144 39.3666 22.4511 33.5062 19.9488 28.5161C18.2628 25.1541 16.486 21.8385 14.7594 18.497C14.6429 18.271 14.5051 18.2029 14.2626 18.2051C13.2102 18.2181 12.1567 18.2105 11.1043 18.2105ZM24.1157 22.1671C25.0474 22.1671 25.979 22.1574 26.9097 22.1736C27.1543 22.1779 27.2334 22.0828 27.2644 21.8601C27.414 20.7596 27.415 19.6613 27.2687 18.5597C27.2345 18.2991 27.1404 18.2019 26.8658 18.204C25.0431 18.2159 23.2203 18.2159 21.3976 18.204C21.1326 18.2019 21.0247 18.2775 20.9873 18.5445C20.8324 19.6451 20.8335 20.7423 20.9873 21.8428C21.0258 22.1185 21.1422 22.179 21.4008 22.1736C22.3058 22.1563 23.2107 22.1671 24.1146 22.1671H24.1157ZM24.1381 23.4914C23.3272 23.4914 22.5152 23.4968 21.7042 23.4882C21.4585 23.4849 21.4061 23.5476 21.5012 23.7887C22.0162 25.1032 22.794 26.22 23.8689 27.1291C24.0762 27.3043 24.2108 27.2826 24.4074 27.1172C25.4726 26.2178 26.2419 25.1108 26.7537 23.8103C26.8562 23.5498 26.7964 23.4838 26.5325 23.4882C25.7344 23.499 24.9363 23.4925 24.1392 23.4925L24.1381 23.4914ZM24.1029 16.8992C24.9021 16.8992 25.7013 16.8927 26.5004 16.9024C26.7526 16.9057 26.868 16.8884 26.7451 16.5803C26.2269 15.2798 25.4576 14.1706 24.3935 13.268C24.1905 13.0961 24.0569 13.0972 23.8539 13.2669C22.7823 14.1631 22.0162 15.2744 21.5002 16.576C21.3816 16.8754 21.4852 16.9078 21.7448 16.9035C22.5301 16.8916 23.3165 16.8992 24.1029 16.8992ZM11.132 14.2517C11.2656 14.2517 11.4013 14.2312 11.5306 14.255C11.9376 14.3306 12.1524 14.1393 12.3319 13.7836C12.6877 13.0799 12.9121 12.3437 13.0189 11.5642C13.0499 11.3372 12.9719 11.2259 12.7764 11.1286C11.7175 10.601 10.585 10.4108 9.42361 10.3318C9.18642 10.3156 9.16718 10.4259 9.18321 10.6194C9.25907 11.5513 9.47489 12.4496 9.79543 13.3231C10.1363 14.2528 10.1405 14.2517 11.132 14.2517ZM29.7688 22.1671C30.1011 22.1671 30.4344 22.1552 30.7656 22.1715C30.9644 22.1812 31.0466 22.1012 31.0894 21.9163C31.3576 20.7704 31.3565 19.6256 31.0915 18.4786C31.0445 18.2743 30.9484 18.2008 30.7357 18.2051C30.1107 18.2192 29.4857 18.2235 28.8617 18.204C28.5732 18.1943 28.5326 18.3056 28.5711 18.5597C28.7356 19.644 28.7399 20.7315 28.5711 21.8147C28.5241 22.1163 28.6117 22.1909 28.8916 22.1715C29.1822 22.1509 29.476 22.1671 29.7688 22.1671ZM18.4914 18.2116C18.1581 18.2116 17.8258 18.2202 17.4924 18.2083C17.2948 18.2008 17.2189 18.2797 17.1698 18.471C16.9678 19.2559 16.8375 20.0245 17.3835 20.7358C17.4636 20.8407 17.5373 20.9639 17.5704 21.0904C17.8279 22.059 18.4733 22.3423 19.3879 22.1682C19.4135 22.1628 19.4413 22.165 19.468 22.1682C19.6368 22.1833 19.7084 22.1228 19.6838 21.9379C19.53 20.7834 19.5268 19.6278 19.6817 18.4732C19.7073 18.2797 19.6453 18.2029 19.4488 18.2094C19.1293 18.2192 18.8098 18.2116 18.4904 18.2116H18.4914ZM11.0551 16.8992H13.411C14.3534 16.8992 14.3406 16.8992 14.348 15.9576C14.3502 15.6549 14.2636 15.5717 13.9666 15.5738C12.2368 15.5879 10.507 15.5803 8.77614 15.5803C7.80172 15.5803 7.81134 15.5803 7.82523 16.5868C7.82843 16.8333 7.89468 16.9078 8.14042 16.9046C9.11163 16.8905 10.0828 16.8992 11.0551 16.8992ZM30.4718 23.4914C29.8094 23.4914 29.2015 23.5055 28.5935 23.4849C28.3221 23.4763 28.1993 23.5574 28.1149 23.8287C27.7762 24.9151 27.2419 25.9 26.5453 26.7962C26.4887 26.8697 26.3818 26.927 26.4021 27.0556C28.0251 26.5908 29.819 25.0351 30.4729 23.4914H30.4718ZM30.506 16.8981C29.569 15.1382 28.226 13.975 26.4128 13.3588C27.196 14.3879 27.7997 15.5003 28.1768 16.7349C28.2131 16.8538 28.2869 16.9003 28.4129 16.8992C29.0871 16.8949 29.7613 16.897 30.5049 16.897L30.506 16.8981ZM21.8399 13.3663C20.0268 13.9825 18.6966 15.1544 17.7489 16.8981C18.4946 16.8981 19.1453 16.896 19.796 16.9003C19.9456 16.9003 20.0375 16.8646 20.0877 16.7003C20.4659 15.4819 21.0578 14.3793 21.8399 13.3663ZM21.8089 27.0037C21.1721 26.1335 20.6454 25.22 20.2672 24.2211C19.9766 23.4536 19.9734 23.4622 19.1485 23.4871C18.9017 23.4947 18.8376 23.5411 18.968 23.7822C19.3131 24.4189 19.6924 25.0449 19.9637 25.713C20.3131 26.5713 21.0781 26.7378 21.8079 27.0037H21.8089ZM8.05174 14.2517C8.19598 14.2517 8.27718 14.2431 8.35517 14.2528C8.72699 14.3025 8.73554 14.1533 8.60732 13.855C8.38509 13.3382 8.24512 12.7912 8.11798 12.2421C7.96092 11.561 7.79531 11.4832 7.17562 11.8258C7.03779 11.9026 6.91706 12.0118 6.79098 12.108C6.64033 12.2237 6.6243 12.3502 6.71726 12.5242C6.93094 12.9253 7.14677 13.3285 7.31986 13.7479C7.47585 14.1242 7.66603 14.3814 8.05067 14.2506L8.05174 14.2517ZM14.1482 14.2506C14.4869 14.3523 14.691 14.1587 14.832 13.7923C14.9667 13.4431 15.16 13.1166 15.3267 12.7804C15.5874 12.2561 15.549 12.1296 15.0276 11.8475C14.9111 11.7848 14.7808 11.7502 14.659 11.6972C14.4207 11.5945 14.301 11.6421 14.269 11.9318C14.1899 12.6453 13.9858 13.3274 13.6792 13.975C13.5841 14.176 13.5959 14.2744 13.8448 14.2517C13.9239 14.2441 14.004 14.2506 14.1472 14.2506H14.1482Z" fill="white"/>
<path d="M25.1884 38.0121C25.8562 38.0121 26.4535 38.024 27.0496 38.0067C27.3103 37.9991 27.3862 38.0824 27.3894 38.3472C27.399 39.3234 27.4086 39.3234 26.446 39.3234H23.0793C23.4608 38.5472 23.8133 37.8283 24.1659 37.1094C24.3013 36.8334 24.2137 36.6947 23.9031 36.6932C23.4373 36.6922 22.9703 36.6835 22.5045 36.6965C22.2566 36.704 22.1583 36.6403 22.1573 36.3603C22.1519 35.3625 22.1402 35.3625 23.1231 35.3625C23.3764 35.3625 23.6296 35.3625 23.8828 35.3625C24.3721 35.3625 24.3818 35.356 24.1435 34.903C23.7332 34.1203 23.3988 33.3258 23.5003 32.4058C23.6445 31.1031 24.7824 30.0837 26.1051 30.0935C27.4215 30.1032 28.5604 31.1518 28.6779 32.4491C28.6972 32.6653 28.6395 32.7528 28.4258 32.7366C28.3328 32.729 28.2388 32.729 28.1459 32.7366C27.7046 32.7766 27.3755 32.7636 27.2345 32.1734C27.0999 31.6048 26.4096 31.3204 25.838 31.4404C25.2269 31.568 24.807 32.0707 24.7856 32.689C24.7707 33.1063 24.8935 33.4847 25.0816 33.8479C25.1254 33.9312 25.1628 34.0176 25.2055 34.1009C25.4042 34.4966 25.5186 34.9906 25.8252 35.2608C26.1447 35.5441 26.6661 35.3311 27.0977 35.356C27.2954 35.3668 27.3723 35.4154 27.3862 35.6295C27.4535 36.6922 27.4589 36.7192 26.4396 36.6792C25.9705 36.6608 25.6938 36.797 25.5485 37.2511C25.4716 37.49 25.3337 37.7094 25.1874 38.011L25.1884 38.0121Z" fill="white"/>
<path d="M23.5911 3.7062C23.9565 3.7062 24.2471 3.71485 24.5367 3.70296C24.73 3.69539 24.7781 3.77539 24.7888 3.96241C24.8497 5.00129 24.854 5.01427 23.8454 5.00886C23.5355 5.0067 23.4682 5.11372 23.4693 5.40344C23.4714 6.32666 23.4607 6.33855 24.3849 6.3299C24.6873 6.32666 24.8433 6.398 24.7845 6.72989C24.7824 6.74286 24.7845 6.75691 24.7845 6.76988C24.7877 7.64229 24.7877 7.65202 23.9276 7.66175C23.6509 7.66499 23.5911 7.72877 23.7417 7.97417C24.1648 8.66388 24.7728 9.02386 25.5741 8.96549C26.0015 8.93414 26.1041 9.08008 26.088 9.49304C26.056 10.3276 26.0784 10.3276 25.2493 10.2833C23.9052 10.2109 22.747 9.32656 22.3399 8.01525C22.2481 7.71796 22.1145 7.62499 21.8399 7.66607C21.8271 7.66823 21.8132 7.66715 21.8004 7.66607C21.5002 7.6358 21.0525 7.80985 20.9339 7.58932C20.7811 7.30716 20.8826 6.88447 20.8719 6.52232C20.8676 6.37963 20.9456 6.3353 21.0706 6.33747C21.1369 6.33855 21.2042 6.34071 21.2704 6.3353C21.5568 6.30828 21.9628 6.47368 22.1028 6.25855C22.2887 5.97423 22.1498 5.55479 22.1626 5.19372C22.1669 5.08021 22.1156 5.01643 21.9981 5.01751C21.9446 5.01751 21.8912 5.01751 21.8378 5.01535C20.8003 4.99048 20.8067 4.99048 20.8655 3.95376C20.8762 3.76242 20.9307 3.69323 21.1198 3.7008C21.3987 3.71269 21.6797 3.69431 21.9585 3.7062C22.1423 3.71485 22.2363 3.6608 22.3026 3.46945C22.8699 1.82518 24.0409 1.01656 25.7568 1.05007C25.9855 1.0544 26.1041 1.09331 26.0838 1.35925C26.0592 1.66735 26.1714 2.03815 26.0378 2.27057C25.8818 2.543 25.479 2.34733 25.1863 2.39814C24.4416 2.52678 23.9351 2.93433 23.5911 3.70512V3.7062Z" fill="white"/>
<path d="M38.3719 25.1606C38.2939 25.3941 38.2169 25.6514 38.1218 25.9033C36.4722 30.2718 33.5361 33.4101 29.3243 35.3322C29.0294 35.4662 28.8991 35.4435 28.7773 35.1138C28.4717 34.2836 28.4589 34.2987 29.2367 33.9095C33.0339 32.0112 35.6463 29.0448 37.0417 24.9952C37.1432 24.7001 37.2511 24.6007 37.547 24.7325C37.7522 24.8244 37.9797 24.8623 38.1945 24.9336C38.2885 24.965 38.4178 24.979 38.3708 25.1617L38.3719 25.1606Z" fill="white"/>
<path d="M37.2949 12.6032C37.0556 12.8258 36.7382 12.9253 36.4583 13.081C36.3557 13.1372 36.2425 13.282 36.1068 13.1404C36.0534 13.0842 36.0267 13.001 35.9882 12.9307C34.0586 9.45947 31.2368 7.06928 27.508 5.785C27.2623 5.70068 27.2067 5.61527 27.2804 5.36339C27.571 4.37423 27.5636 4.36991 28.5102 4.73854C32.2732 6.20228 35.1399 8.71571 37.1154 12.2702C37.1677 12.3642 37.2169 12.4594 37.2938 12.6032H37.2949Z" fill="white"/>
<path d="M14.3395 27.4633C14.3395 27.8135 14.3341 28.1649 14.3416 28.5151C14.3459 28.7022 14.2797 28.7962 14.0873 28.7757C14.0606 28.7724 14.0339 28.7757 14.0072 28.7757C13.3626 28.793 13.0403 28.4769 13.0403 27.8276C13.0403 27.4633 13.0477 27.099 13.0371 26.7357C13.0071 25.6969 12.2048 24.8634 11.1833 24.8266C10.5978 24.805 10.0102 24.832 9.42468 24.8115C9.1597 24.8028 9.1159 24.9163 9.12231 25.1466C9.1362 25.6179 9.12551 26.0904 9.12658 26.5628C9.12872 27.9346 9.86701 28.7097 11.2271 28.7865C12.5456 28.8611 13.4773 29.5324 14.0553 30.7162C14.2711 31.1583 14.3427 31.6372 14.3416 32.1302C14.3384 33.088 14.332 34.0458 14.347 35.0025C14.3512 35.2803 14.2797 35.3776 13.9933 35.369C13.3544 35.3484 12.7133 35.3744 12.0744 35.3571C11.8062 35.3495 11.7069 35.4425 11.7453 35.703C11.7496 35.729 11.7485 35.7571 11.7453 35.7841C11.7154 36.0727 11.8832 36.4792 11.6684 36.6262C11.3863 36.8197 10.9718 36.6781 10.6149 36.6878C10.444 36.6922 10.4108 36.5635 10.4365 36.4392C10.6096 35.6068 10.226 35.2436 9.48344 34.8966C8.40966 34.3939 7.88506 33.3896 7.84018 32.1766C7.81775 31.5842 7.79104 30.9864 7.84553 30.3972C7.90429 29.7529 8.42355 30.2145 8.71417 30.1054C8.90969 30.0319 9.1597 30.0297 9.13513 30.4145C9.10201 30.9389 9.12231 31.4664 9.12765 31.9918C9.14047 33.1863 9.96317 34.0317 11.1363 34.0523C11.6695 34.062 12.2026 34.0404 12.7358 34.0609C12.9879 34.0706 13.0542 33.9842 13.0467 33.7398C13.0307 33.2145 13.0445 32.688 13.0413 32.1626C13.0328 30.9529 12.2464 30.1356 11.0508 30.0924C9.20565 30.0243 7.85514 28.6265 7.83377 26.7584C7.82843 26.259 7.8327 25.7606 7.8327 25.2612C7.8327 24.7888 7.8498 24.3164 7.82629 23.845C7.8124 23.5531 7.91925 23.4796 8.19063 23.4872C8.82956 23.5045 9.47062 23.484 10.1095 23.4969C10.3457 23.5013 10.4664 23.4332 10.4311 23.1791C10.429 23.1661 10.4311 23.1521 10.4311 23.1391C10.4557 22.0818 10.4557 22.0873 11.5007 22.1651C11.6951 22.1791 11.7784 22.2527 11.7421 22.4332C11.584 23.2353 11.9099 23.6158 12.6631 23.9553C13.7444 24.4418 14.2711 25.4439 14.332 26.6579C14.3459 26.9271 14.3341 27.1974 14.3341 27.4665C14.3363 27.4665 14.3384 27.4665 14.3406 27.4665L14.3395 27.4633Z" fill="white"/>
</g>
</g>
<defs>
<clipPath id="clip0_37_132">
<rect width="42" height="42" fill="white"/>
</clipPath>
<clipPath id="clip1_37_132">
<rect width="40.95" height="40.95" fill="white" transform="translate(0 1.05005)"/>
</clipPath>
</defs>
</svg>
