<svg width="24" height="25" viewBox="0 0 24 25" fill="none" xmlns="http://www.w3.org/2000/svg">
<g clip-path="url(#clip0_67_172)">
<path d="M23 11.3636C22.7348 11.3636 22.4804 11.2583 22.2929 11.0707C22.1053 10.8832 22 10.6289 22 10.3636C21.9979 8.24256 21.1543 6.20895 19.6545 4.70912C18.1547 3.20929 16.1211 2.36576 14 2.36364C13.7348 2.36364 13.4804 2.25828 13.2929 2.07074C13.1053 1.88321 13 1.62885 13 1.36364C13 1.09842 13.1053 0.844067 13.2929 0.65653C13.4804 0.468994 13.7348 0.363637 14 0.363637C16.6513 0.366549 19.1931 1.42105 21.0678 3.29579C22.9426 5.17052 23.9971 7.71237 24 10.3636C24 10.6289 23.8946 10.8832 23.7071 11.0707C23.5196 11.2583 23.2652 11.3636 23 11.3636ZM20 10.3636C20 8.77234 19.3678 7.24622 18.2426 6.121C17.1174 4.99578 15.5913 4.36364 14 4.36364C13.7348 4.36364 13.4804 4.46899 13.2929 4.65653C13.1053 4.84407 13 5.09842 13 5.36364C13 5.62885 13.1053 5.88321 13.2929 6.07074C13.4804 6.25828 13.7348 6.36364 14 6.36364C15.0609 6.36364 16.0783 6.78506 16.8284 7.53521C17.5786 8.28536 18 9.30277 18 10.3636C18 10.6289 18.1053 10.8832 18.2929 11.0707C18.4804 11.2583 18.7348 11.3636 19 11.3636C19.2652 11.3636 19.5196 11.2583 19.7071 11.0707C19.8946 10.8832 20 10.6289 20 10.3636ZM22.183 22.5276L23.093 21.4786C23.6722 20.8976 23.9974 20.1106 23.9974 19.2901C23.9974 18.4697 23.6722 17.6827 23.093 17.1016C23.062 17.0706 20.656 15.2196 20.656 15.2196C20.0785 14.67 19.3115 14.3639 18.5143 14.365C17.7171 14.3661 16.9509 14.6744 16.375 15.2256L14.469 16.8316C12.9132 16.1877 11.4999 15.2428 10.3103 14.0512C9.12068 12.8595 8.17821 11.4446 7.53699 9.88764L9.13699 7.98764C9.68871 7.41181 9.99729 6.64551 9.99859 5.84804C9.9999 5.05057 9.69382 4.28327 9.14399 3.70564C9.14399 3.70564 7.29099 1.30264 7.25999 1.27164C6.68944 0.697385 5.91587 0.370659 5.10642 0.362052C4.29696 0.353445 3.51662 0.663648 2.93399 1.22564L1.78399 2.22564C-5.01001 10.1076 9.61999 24.6246 17.762 24.3636C18.5842 24.3684 19.399 24.2084 20.1583 23.8931C20.9176 23.5777 21.6061 23.1134 22.183 22.5276Z" fill="white"/>
</g>
<defs>
<clipPath id="clip0_67_172">
<rect width="24" height="24" fill="white" transform="translate(0 0.363647)"/>
</clipPath>
</defs>
</svg>
